# xmcd CD database file
#
# Track frame offsets:
#	150
#	17537
#	36670
#	52916
#	81211
#	92967
#	109960
#	126018
#	141811
#	158171
#	172744
#	188197
#	210755
#	234253
#
# Disc length: 3394 seconds
#
# Revision: 0
# Processed by: cddbd v1.5.2PL0 Copyright (c) Steve Scherf et al.
# Submitted via: CDex 1.70beta2
#
DISCID=ad0d400e
DTITLE=Danny Kalb - I'm Gonna Live The Life I Sing About
DYEAR=2009
DGENRE=Blues
TTITLE0=I Wish You Would
TTITLE1=Slippin' And Slidin'
TTITLE2=You Can't Judge A Book By The Cover
TTITLE3=Mean Old World
TTITLE4=Gotta Get Goin' Again
TTITLE5=Danville Dame
TTITLE6=I'm In The Mood
TTITLE7=Shame, Shame, Shame
TTITLE8=Crazy Girl
TTITLE9=I'm Gonna Live The Life I Sing About
TTITLE10=Shake Sugaree
TTITLE11=Samson and Delilah
TTITLE12=Baby Please Don't Go
TTITLE13=Lazy Afternoon
EXTD=YEAR: 2009
EXTT0=
EXTT1=
EXTT2=
EXTT3=
EXTT4=
EXTT5=
EXTT6=
EXTT7=
EXTT8=
EXTT9=
EXTT10=
EXTT11=
EXTT12=
EXTT13=
PLAYORDER=
